<?xml version="1.0" encoding="UTF-8"?>
<svg width="36px" height="36px" viewBox="0 0 36 36" version="1.1" xmlns="http://www.w3.org/2000/svg" xmlns:xlink="http://www.w3.org/1999/xlink">
    <!-- Generator: Sketch 48.2 (47327) - http://www.bohemiancoding.com/sketch -->
    <title>Guzzu/Icons/close-dark</title>
    <desc>Created with Sketch.</desc>
    <defs></defs>
    <g id="Symbols" stroke="none" stroke-width="1" fill="none" fill-rule="evenodd">
        <g id="Guzzu/Icons/close-dark" fill="#000000" fill-rule="nonzero">
            <path d="M15.1715729,18 L4.58578644,7.41421356 C3.80473785,6.63316498 3.80473785,5.36683502 4.58578644,4.58578644 C5.36683502,3.80473785 6.63316498,3.80473785 7.41421356,4.58578644 L18,15.1715729 L28.5857864,4.58578644 C29.366835,3.80473785 30.633165,3.80473785 31.4142136,4.58578644 C32.1952621,5.36683502 32.1952621,6.63316498 31.4142136,7.41421356 L20.8284271,18 L31.4142136,28.5857864 C32.1952621,29.366835 32.1952621,30.633165 31.4142136,31.4142136 C30.633165,32.1952621 29.366835,32.1952621 28.5857864,31.4142136 L18,20.8284271 L7.41421356,31.4142136 C6.63316498,32.1952621 5.36683502,32.1952621 4.58578644,31.4142136 C3.80473785,30.633165 3.80473785,29.366835 4.58578644,28.5857864 L15.1715729,18 Z" id="Combined-Shape"></path>
        </g>
    </g>
</svg>