<?xml version="1.0" encoding="UTF-8"?>
<svg width="330px" height="74px" viewBox="0 0 330 74" version="1.1" xmlns="http://www.w3.org/2000/svg" xmlns:xlink="http://www.w3.org/1999/xlink">
    <!-- Generator: Sketch 47.1 (45422) - http://www.bohemiancoding.com/sketch -->
    <title>Guzzu/Logo/Guzzu dark</title>
    <desc>Created with Sketch.</desc>
    <defs></defs>
    <g id="Symbols" stroke="none" stroke-width="1" fill="none" fill-rule="evenodd">
        <g id="Guzzu/Logo/Guzzu-dark" fill="#000000">
            <path d="M36.7664743,73 C49.5548132,73 59.4457941,68.0276243 66.6392347,61.961326 L66.6392347,31.7292818 L36.2669299,31.7292818 L36.2669299,44.9558011 L51.752809,44.9558011 L51.752809,54.9005525 C47.856362,57.6850829 42.8609171,59.0773481 37.2660188,59.0773481 C24.8773155,59.0773481 16.0853325,49.7292818 16.0853325,37 L16.0853325,36.801105 C16.0853325,24.9668508 24.9772244,15.121547 36.167021,15.121547 C44.2596417,15.121547 49.0552688,17.7071823 54.4503492,22.1823204 L64.1415123,10.5469613 C56.8481628,4.38121547 49.2550865,1 36.6665654,1 C15.4858791,1 0,17.2099448 0,37 L0,37.198895 C0,57.7845304 14.9863346,73 36.7664743,73 Z M102.906165,72.9005525 C121.689037,72.9005525 133.578196,62.558011 133.578196,41.4751381 L133.578196,2.19337017 L118.192226,2.19337017 L118.192226,42.0718232 C118.192226,53.1104972 112.497419,58.7790055 103.105982,58.7790055 C93.714546,58.7790055 88.0197388,52.9116022 88.0197388,41.5745856 L88.0197388,2.19337017 L72.6337686,2.19337017 L72.6337686,41.9723757 C72.6337686,62.4585635 84.1232918,72.9005525 102.906165,72.9005525 Z M139.57273,71.8066298 L197.819617,71.8066298 L197.819617,58.3812155 L159.354692,58.3812155 L197.819617,13.8287293 L197.819617,2.19337017 L140.771637,2.19337017 L140.771637,15.6187845 L178.037656,15.6187845 L139.57273,60.1712707 L139.57273,71.8066298 Z M203.814151,71.8066298 L262.061039,71.8066298 L262.061039,58.3812155 L223.596113,58.3812155 L262.061039,13.8287293 L262.061039,2.19337017 L205.013058,2.19337017 L205.013058,15.6187845 L242.279077,15.6187845 L203.814151,60.1712707 L203.814151,71.8066298 Z M298.327968,72.9005525 C317.110841,72.9005525 329,62.558011 329,41.4751381 L329,2.19337017 L313.61403,2.19337017 L313.61403,42.0718232 C313.61403,53.1104972 307.919223,58.7790055 298.527786,58.7790055 C289.13635,58.7790055 283.441543,52.9116022 283.441543,41.5745856 L283.441543,2.19337017 L268.055572,2.19337017 L268.055572,41.9723757 C268.055572,62.4585635 279.545096,72.9005525 298.327968,72.9005525 Z" id="GUZZU"></path>
        </g>
    </g>
</svg>