<?xml version="1.0" encoding="UTF-8"?>
<svg width="36px" height="36px" viewBox="0 0 36 36" version="1.1" xmlns="http://www.w3.org/2000/svg" xmlns:xlink="http://www.w3.org/1999/xlink">
    <!-- Generator: Sketch 48.2 (47327) - http://www.bohemiancoding.com/sketch -->
    <title>Guzzu/Icons/person-dark</title>
    <desc>Created with Sketch.</desc>
    <defs></defs>
    <g id="Symbols" stroke="none" stroke-width="1" fill="none" fill-rule="evenodd">
        <g id="Guzzu/Icons/person-dark" fill="#000000">
            <path d="M18,32 C10.2680135,32 4,25.7319865 4,18 C4,10.2680135 10.2680135,4 18,4 C25.7319865,4 32,10.2680135 32,18 C32,25.7319865 25.7319865,32 18,32 Z M18,25 C20.209139,25 22,23.209139 22,21 L14,21 C14,23.209139 15.790861,25 18,25 Z M12,19 C13.1045695,19 14,18.1045695 14,17 C14,15.8954305 13.1045695,15 12,15 C10.8954305,15 10,15.8954305 10,17 C10,18.1045695 10.8954305,19 12,19 Z M24,19 C25.1045695,19 26,18.1045695 26,17 C26,15.8954305 25.1045695,15 24,15 C22.8954305,15 22,15.8954305 22,17 C22,18.1045695 22.8954305,19 24,19 Z" id="Combined-Shape"></path>
        </g>
    </g>
</svg>