<?xml version="1.0" encoding="UTF-8"?>
<svg width="36px" height="36px" viewBox="0 0 36 36" version="1.1" xmlns="http://www.w3.org/2000/svg" xmlns:xlink="http://www.w3.org/1999/xlink">
    <!-- Generator: Sketch 48.2 (47327) - http://www.bohemiancoding.com/sketch -->
    <title>Guzzu/Icons/travel-wallet-dark</title>
    <desc>Created with Sketch.</desc>
    <defs></defs>
    <g id="Symbols" stroke="none" stroke-width="1" fill="none" fill-rule="evenodd">
        <g id="Guzzu/Icons/travel-wallet-dark" fill="#000000">
            <path d="M29.5263158,9.89473684 L25.1052632,9.89473684 L25.1052632,6.94736842 C25.1052632,5.31157895 23.7936842,4 22.1578947,4 L13.3157895,4 C11.68,4 10.3684211,5.31157895 10.3684211,6.94736842 L10.3684211,9.89473684 L5.94736842,9.89473684 C4.31157895,9.89473684 3,11.2063158 3,12.8421053 L3,29.0526316 C3,30.6884211 4.31157895,32 5.94736842,32 L29.5263158,32 C31.1621053,32 32.4736842,30.6884211 32.4736842,29.0526316 L32.4736842,12.8421053 C32.4736842,11.2063158 31.1621053,9.89473684 29.5263158,9.89473684 L29.5263158,9.89473684 Z M13.3157895,6.94736842 L22.1578947,6.94736842 L22.1578947,9.89473684 L13.3157895,9.89473684 L13.3157895,6.94736842 L13.3157895,6.94736842 Z M29.5263158,29.0526316 L5.94736842,29.0526316 L5.94736842,26.1052632 L29.5263158,26.1052632 L29.5263158,29.0526316 L29.5263158,29.0526316 Z M29.5263158,21.6842105 L5.94736842,21.6842105 L5.94736842,12.8421053 L10.3684211,12.8421053 L10.3684211,15.7894737 L13.3157895,15.7894737 L13.3157895,12.8421053 L22.1578947,12.8421053 L22.1578947,15.7894737 L25.1052632,15.7894737 L25.1052632,12.8421053 L29.5263158,12.8421053 L29.5263158,21.6842105 L29.5263158,21.6842105 Z" id="Shape"></path>
        </g>
    </g>
</svg>