<?xml version="1.0" encoding="UTF-8"?>
<svg width="36px" height="36px" viewBox="0 0 36 36" version="1.1" xmlns="http://www.w3.org/2000/svg" xmlns:xlink="http://www.w3.org/1999/xlink">
    <!-- Generator: Sketch 48.2 (47327) - http://www.bohemiancoding.com/sketch -->
    <title>Guzzu/Icons/truck-dark</title>
    <desc>Created with Sketch.</desc>
    <defs></defs>
    <g id="Symbols" stroke="none" stroke-width="1" fill="none" fill-rule="evenodd">
        <g id="Guzzu/Icons/truck-dark" fill="#000000">
            <path d="M25.6252723,26.453159 C26.1539605,26.453159 26.6063888,26.2701543 26.9825708,25.9041394 C27.3587528,25.5381245 27.546841,25.0907797 27.546841,24.5620915 C27.546841,24.0334033 27.3587528,23.580975 26.9825708,23.204793 C26.6063888,22.828611 26.1539605,22.6405229 25.6252723,22.6405229 C25.0965841,22.6405229 24.6492393,22.828611 24.2832244,23.204793 C23.9172095,23.580975 23.7342048,24.0334033 23.7342048,24.5620915 C23.7342048,25.0907797 23.9172095,25.5381245 24.2832244,25.9041394 C24.6492393,26.2701543 25.0965841,26.453159 25.6252723,26.453159 Z M27.546841,15.0152505 L24.3747277,15.0152505 L24.3747277,18.1873638 L30.0479303,18.1873638 L27.546841,15.0152505 Z M10.3747277,26.453159 C10.9034159,26.453159 11.3558442,26.2701543 11.7320261,25.9041394 C12.1082081,25.5381245 12.2962963,25.0907797 12.2962963,24.5620915 C12.2962963,24.0334033 12.1082081,23.580975 11.7320261,23.204793 C11.3558442,22.828611 10.9034159,22.6405229 10.3747277,22.6405229 C9.84603948,22.6405229 9.39869464,22.828611 9.03267974,23.204793 C8.66666484,23.580975 8.48366013,24.0334033 8.48366013,24.5620915 C8.48366013,25.0907797 8.66666484,25.5381245 9.03267974,25.9041394 C9.39869464,26.2701543 9.84603948,26.453159 10.3747277,26.453159 Z M28.1873638,13.124183 L32,18.1873638 L32,24.5620915 L29.4379085,24.5620915 C29.4379085,25.2331188 29.2650707,25.8634684 28.91939,26.453159 C28.5737092,27.0428497 28.1060305,27.5105284 27.5163399,27.8562092 C26.9266492,28.2018899 26.2962997,28.3747277 25.6252723,28.3747277 C24.954245,28.3747277 24.3238955,28.2018899 23.7342048,27.8562092 C23.1445141,27.5105284 22.6768354,27.0428497 22.3311547,26.453159 C21.9854739,25.8634684 21.8126362,25.2331188 21.8126362,24.5620915 L14.1873638,24.5620915 C14.1873638,25.2331188 14.0145261,25.8634684 13.6688453,26.453159 C13.3231646,27.0428497 12.8554859,27.5105284 12.2657952,27.8562092 C11.6761045,28.2018899 11.045755,28.3747277 10.3747277,28.3747277 C9.70370035,28.3747277 9.07335081,28.2018899 8.48366013,27.8562092 C7.89396946,27.5105284 7.42629076,27.0428497 7.08061002,26.453159 C6.73492928,25.8634684 6.5620915,25.2331188 6.5620915,24.5620915 L4,24.5620915 L4,10.5620915 C4,9.87073002 4.2541732,9.27088126 4.76252723,8.76252723 C5.27088126,8.2541732 5.87073002,8 6.5620915,8 L24.3747277,8 L24.3747277,13.124183 L28.1873638,13.124183 Z" id=""></path>
        </g>
    </g>
</svg>