<?xml version="1.0" encoding="UTF-8"?>
<svg width="200px" height="200px" viewBox="0 0 200 200" version="1.1" xmlns="http://www.w3.org/2000/svg" xmlns:xlink="http://www.w3.org/1999/xlink">
    <!-- Generator: Sketch 48.2 (47327) - http://www.bohemiancoding.com/sketch -->
    <title>Logo/WeChat Pay Light</title>
    <desc>Created with Sketch.</desc>
    <defs></defs>
    <g id="Symbols" stroke="none" stroke-width="1" fill="none" fill-rule="evenodd">
        <g id="Logo/WeChat-Pay-Light" fill="#FFFFFF">
            <path d="M72.721202,123.519199 C71.7863105,123.986644 70.7846411,124.253756 69.7161937,124.253756 C67.245409,124.253756 65.0417362,122.851419 63.9065109,120.84808 L63.4390651,119.913189 L45.2754591,79.9799666 C45.0751252,79.5125209 44.9415693,79.0450751 44.9415693,78.5776294 C44.9415693,76.7078464 46.4106845,75.2387312 48.2804674,75.2387312 C49.015025,75.2387312 49.6828047,75.5058431 50.2838063,75.9065109 L71.7863105,91.1986644 C73.3889816,92.2003339 75.2587646,92.8013356 77.2621035,92.8013356 C78.4641068,92.8013356 79.5993322,92.6010017 80.6677796,92.2003339 L181.63606,47.2587646 C163.539232,25.9565943 133.75626,12 99.966611,12 C44.7412354,12 0,49.2621035 0,95.2721202 C0,120.380634 13.4891486,142.951586 34.524207,158.24374 C36.1936561,159.445743 37.3288815,161.449082 37.3288815,163.652755 C37.3288815,164.387312 37.1953255,165.055092 36.9949917,165.789649 C35.3255426,172.066778 32.5876461,182.15025 32.5208681,182.617696 C32.3205342,183.419032 31.9866444,184.220367 31.9866444,185.021703 C31.9866444,186.891486 33.4557596,188.360601 35.3255426,188.360601 C36.0601002,188.360601 36.6611018,188.093489 37.2621035,187.759599 L59.1652755,175.138564 C60.8347245,174.203673 62.5709516,173.602671 64.4407346,173.602671 C65.442404,173.602671 66.4440735,173.736227 67.3789649,174.070117 C77.5959933,177.008347 88.6143573,178.611018 100.033389,178.611018 C155.258765,178.611018 200,141.348915 200,95.3388982 C200,81.3823038 195.859766,68.293823 188.647746,56.7412354 L73.4557596,123.118531 L72.721202,123.519199 Z" id="Shape"></path>
        </g>
    </g>
</svg>